<svg width="40" height="40" viewBox="0 0 40 40" fill="none" xmlns="http://www.w3.org/2000/svg">
<rect width="40" height="40" fill="#1F2937"/>
<path d="M12 19H16C16.2652 19 16.5196 19.1054 16.7071 19.2929C16.8946 19.4804 17 19.7348 17 20V28C17 28.2652 16.8946 28.5196 16.7071 28.7071C16.5196 28.8946 16.2652 29 16 29H14C13.2348 29 12.4985 28.7077 11.9417 28.1827C11.385 27.6578 11.0499 26.9399 11.005 26.176L11 26V20C11 19.7348 11.1054 19.4804 11.2929 19.2929C11.4804 19.1054 11.7348 19 12 19Z" fill="white"/>
<path d="M29 20V26C29 26.7652 28.7077 27.5015 28.1827 28.0583C27.6578 28.615 26.9399 28.9501 26.176 28.995L26 29H20C19.7348 29 19.4804 28.8946 19.2929 28.7071C19.1054 28.5196 19 28.2652 19 28V20C19 19.7348 19.1054 19.4804 19.2929 19.2929C19.4804 19.1054 19.7348 19 20 19H28C28.2652 19 28.5196 19.1054 28.7071 19.2929C28.8946 19.4804 29 19.7348 29 20Z" fill="white"/>
<path d="M26 11C26.7652 11 27.5015 11.2923 28.0583 11.8173C28.615 12.3422 28.9501 13.0601 28.995 13.824L29 14V16C29 16.2652 28.8946 16.5196 28.7071 16.7071C28.5196 16.8946 28.2652 17 28 17H20C19.7348 17 19.4804 16.8946 19.2929 16.7071C19.1054 16.5196 19 16.2652 19 16V12C19 11.7348 19.1054 11.4804 19.2929 11.2929C19.4804 11.1054 19.7348 11 20 11H26Z" fill="white"/>
<path d="M17 12V16C17 16.2652 16.8946 16.5196 16.7071 16.7071C16.5196 16.8946 16.2652 17 16 17H12C11.7348 17 11.4804 16.8946 11.2929 16.7071C11.1054 16.5196 11 16.2652 11 16V14C11 13.2348 11.2923 12.4985 11.8173 11.9417C12.3422 11.385 13.0601 11.0499 13.824 11.005L14 11H16C16.2652 11 16.5196 11.1054 16.7071 11.2929C16.8946 11.4804 17 11.7348 17 12Z" fill="white"/>
</svg>
